<?xml version="1.0" encoding="UTF-8"?>
<svg width="17px" height="26px" viewBox="0 0 17 26" version="1.1" xmlns="http://www.w3.org/2000/svg" xmlns:xlink="http://www.w3.org/1999/xlink">
    <!-- Generator: Sketch 53.2 (72643) - https://sketchapp.com -->
    <title>Group 12@2x</title>
    <desc>Created with Sketch.</desc>
    <g id="Symbols" stroke="none" stroke-width="1" fill="none" fill-rule="evenodd">
        <g id="AT---CPO-generic-icon" transform="translate(-10.000000, -4.000000)">
            <g id="Group-12" transform="translate(10.000000, 4.000000)">
                <g id="Document" fill-rule="nonzero">
                    <polygon id="Shape" fill="#FFFFFF" points="5.22724906 0.347680312 16.4633092 0.347680312 16.4633092 25.7030019 0.536690821 25.7030019 0.536690821 5.58011696"></polygon>
                    <polygon id="Rectangle-path" fill="#FFA345" opacity="0.5" points="14.1717311 0.347680312 16.4638111 0.347680312 16.4638111 25.7024951 14.1717311 25.7024951"></polygon>
                    <polygon id="Shape" fill="#FFA345" opacity="0.5" points="0.536690821 5.58011696 5.22724906 5.58011696 5.22724906 0.347680312"></polygon>
                    <path d="M16.4633092,26 L0.536690821,26 C0.458603489,26.0001346 0.383668773,25.9689032 0.328405558,25.9131907 C0.273142343,25.8574781 0.242087916,25.7818586 0.24208803,25.7030019 L0.24208803,5.58214425 C0.241878452,5.50749484 0.269466373,5.43549384 0.319377348,5.38042885 L5.00943371,0.148499025 C5.06507476,0.0862557372 5.1442133,0.0507161114 5.22724906,0.0506822612 L16.4633092,0.0506822612 C16.625818,0.0506820231 16.7576351,0.183570869 16.757912,0.347680312 L16.757912,25.7030019 C16.7579121,25.7818586 16.7268577,25.8574781 16.6715944,25.9131907 C16.6163312,25.9689032 16.5413965,26.0001346 16.4633092,26 Z M0.830791734,25.4054971 L16.1692083,25.4054971 L16.1692083,0.645185185 L5.35773752,0.645185185 L0.830791734,5.69465887 L0.830791734,25.4054971 Z" id="Shape" fill="#333333"></path>
                    <path d="M5.22724906,5.8791423 L0.536690821,5.8791423 C0.42019186,5.87938864 0.314530065,5.81016836 0.267265664,5.70263872 C0.220001263,5.59510907 0.240044511,5.46954149 0.318373591,5.38245614 L5.00943371,0.148499025 C5.09084558,0.0570676955 5.21969281,0.0258689279 5.33331029,0.0700763062 C5.44692777,0.114283684 5.52173525,0.224722381 5.52134997,0.347680312 L5.52134997,5.58011696 C5.52188478,5.65923641 5.4911355,5.73530088 5.4359228,5.79143806 C5.38071011,5.84757523 5.30559855,5.87914414 5.22724906,5.8791423 Z M1.19967257,5.2851462 L4.93314815,5.2851462 L4.93314815,1.1185575 L1.19967257,5.2851462 Z" id="Shape" fill="#333333"></path>
                    <path d="M13.1905582,7.61146199 L3.80944176,7.61146199 C3.70436962,7.61146199 3.60727896,7.55485449 3.55474288,7.46296297 C3.50220681,7.37107145 3.50220681,7.25785643 3.55474288,7.16596491 C3.60727896,7.07407339 3.70436962,7.01746588 3.80944176,7.01746589 L13.1905582,7.01746589 C13.3529857,7.01746589 13.4846592,7.15043644 13.4846592,7.31446394 C13.4846592,7.47849143 13.3529857,7.61146199 13.1905582,7.61146199 L13.1905582,7.61146199 Z" id="Shape" fill="#333333"></path>
                    <path d="M6.75195652,9.74265107 L2.8287708,9.74265107 C2.66634335,9.74265107 2.53466989,9.60968052 2.53466989,9.44565302 C2.53466989,9.28162553 2.66634335,9.14865497 2.8287708,9.14865497 L6.7524584,9.14865497 C6.91488585,9.14865497 7.04655931,9.28162553 7.04655931,9.44565302 C7.04655931,9.60968052 6.91488585,9.74265107 6.7524584,9.74265107 L6.75195652,9.74265107 Z" id="Shape" fill="#333333"></path>
                    <path d="M6.75195652,11.8738402 L2.8287708,11.8738402 C2.66634335,11.8738402 2.53466989,11.7408696 2.53466989,11.5768421 C2.53466989,11.4128146 2.66634335,11.2798441 2.8287708,11.2798441 L6.7524584,11.2798441 C6.91488585,11.2798441 7.04655931,11.4128146 7.04655931,11.5768421 C7.04655931,11.7408696 6.91488585,11.8738402 6.7524584,11.8738402 L6.75195652,11.8738402 Z" id="Shape" fill="#333333"></path>
                    <path d="M6.75195652,14.0055361 L2.8287708,14.0055361 C2.67092963,13.9989529 2.54632498,13.8678165 2.54632498,13.7082846 C2.54632498,13.5487527 2.67092963,13.4176163 2.8287708,13.4110331 L6.7524584,13.4110331 C6.86051945,13.4065262 6.9623379,13.4621756 7.01769805,13.5560014 C7.0730582,13.6498271 7.0730582,13.7667421 7.01769805,13.8605678 C6.9623379,13.9543936 6.86051945,14.010043 6.7524584,14.0055361 L6.75195652,14.0055361 Z" id="Shape" fill="#333333"></path>
                    <path d="M14.1712292,9.74265107 L10.2480435,9.74265107 C10.085616,9.74265107 9.95394257,9.60968052 9.95394257,9.44565302 C9.95394257,9.28162553 10.085616,9.14865497 10.2480435,9.14865497 L14.1712292,9.14865497 C14.3336566,9.14865497 14.4653301,9.28162553 14.4653301,9.44565302 C14.4653301,9.60968052 14.3336566,9.74265107 14.1712292,9.74265107 Z" id="Shape" fill="#333333"></path>
                    <path d="M14.1712292,11.8738402 L10.2480435,11.8738402 C10.085616,11.8738402 9.95394257,11.7408696 9.95394257,11.5768421 C9.95394257,11.4128146 10.085616,11.2798441 10.2480435,11.2798441 L14.1712292,11.2798441 C14.3336566,11.2798441 14.4653301,11.4128146 14.4653301,11.5768421 C14.4653301,11.7408696 14.3336566,11.8738402 14.1712292,11.8738402 Z" id="Shape" fill="#333333"></path>
                    <path d="M14.1712292,14.0055361 L10.2480435,14.0055361 C10.1399824,14.010043 10.038164,13.9543936 9.98280383,13.8605678 C9.92744368,13.7667421 9.92744368,13.6498271 9.98280383,13.5560014 C10.038164,13.4621756 10.1399824,13.4065262 10.2480435,13.4110331 L14.1712292,13.4110331 C14.3290704,13.4176163 14.453675,13.5487527 14.453675,13.7082846 C14.453675,13.8678165 14.3290704,13.9989529 14.1712292,14.0055361 Z" id="Shape" fill="#333333"></path>
                    <path d="M14.1712292,17.119961 L10.2480435,17.119961 C10.1399824,17.124468 10.038164,17.0688185 9.98280383,16.9749928 C9.92744368,16.881167 9.92744368,16.7642521 9.98280383,16.6704263 C10.038164,16.5766006 10.1399824,16.5209511 10.2480435,16.5254581 L14.1712292,16.5254581 C14.3290704,16.5320413 14.453675,16.6631776 14.453675,16.8227096 C14.453675,16.9822415 14.3290704,17.1133778 14.1712292,17.119961 L14.1712292,17.119961 Z" id="Shape" fill="#333333"></path>
                    <path d="M14.1712292,19.2511501 L10.2480435,19.2511501 C10.1399824,19.2556571 10.038164,19.2000076 9.98280383,19.1061819 C9.92744368,19.0123561 9.92744368,18.8954411 9.98280383,18.8016154 C10.038164,18.7077897 10.1399824,18.6521402 10.2480435,18.6566472 L14.1712292,18.6566472 C14.3290704,18.6632304 14.453675,18.7943667 14.453675,18.9538986 C14.453675,19.1134306 14.3290704,19.2445669 14.1712292,19.2511501 L14.1712292,19.2511501 Z" id="Shape" fill="#333333"></path>
                    <path d="M12.2098873,21.3823392 L10.2480435,21.3823392 C10.085616,21.3823392 9.95394257,21.2493686 9.95394257,21.0853411 C9.95394257,20.9213136 10.085616,20.7883431 10.2480435,20.7883431 L12.2098873,20.7883431 C12.3723147,20.7883431 12.5039882,20.9213136 12.5039882,21.0853411 C12.5039882,21.2493686 12.3723147,21.3823392 12.2098873,21.3823392 L12.2098873,21.3823392 Z" id="Shape" fill="#333333"></path>
                </g>
                <path d="M7.49150988,19.0227265 L7.95819714,19.4882202 C8.02583302,19.5571823 8.04612377,19.6382126 8.01906939,19.7313114 C7.992015,19.8244101 7.93452465,19.8813038 7.84659801,19.9019924 L7.20743938,20.0675012 L7.39005613,20.7088481 C7.41711052,20.8053949 7.39681977,20.8881493 7.32918388,20.9571114 C7.261548,21.0260735 7.18038499,21.0467621 7.08569488,21.0191772 L6.45668162,20.8329797 L6.29435562,21.4846709 C6.27406487,21.5812177 6.21657436,21.6415596 6.12188424,21.6656962 C6.02719413,21.6898329 5.94941287,21.6674203 5.88854061,21.5984582 L5.43199873,21.1226203 L4.97545685,21.5984582 C4.90782097,21.6674203 4.82834891,21.6898329 4.73704054,21.6656962 C4.64573216,21.6415596 4.5899326,21.5812177 4.56964185,21.4846709 L4.40731585,20.8329797 L3.77830259,21.0191772 C3.68361247,21.0467621 3.60244947,21.0260735 3.53481359,20.9571114 C3.4671777,20.8881493 3.44688695,20.8053949 3.47394134,20.7088481 L3.65655809,20.0675012 L3.01739946,19.9019924 C2.92947282,19.8813038 2.87198246,19.8244101 2.84492808,19.7313114 C2.81787369,19.6382126 2.83816444,19.5571823 2.90580033,19.4882202 L3.37248759,19.0227265 L2.90580033,18.5572329 C2.83816444,18.4882708 2.81787369,18.4072404 2.84492808,18.3141417 C2.87198246,18.221043 2.92947282,18.1641493 3.01739946,18.1434607 L3.65655809,17.9779518 L3.47394134,17.336605 C3.44688695,17.2400582 3.4671777,17.1573038 3.53481359,17.0883417 C3.60244947,17.0193796 3.68361247,16.998691 3.77830259,17.0262759 L4.40731585,17.2124733 L4.56964185,16.5607822 C4.5899326,16.4642354 4.64742311,16.4038935 4.74211323,16.3797569 C4.83680334,16.3556202 4.9145846,16.3780328 4.97545685,16.4469948 L5.43199873,16.9331771 L5.88854061,16.4469948 C5.9561765,16.3780328 6.03564855,16.3573441 6.12695693,16.384929 C6.21826531,16.4125139 6.27406487,16.4711315 6.29435562,16.5607822 L6.45668162,17.2124733 L7.08569488,17.0262759 C7.18038499,16.998691 7.261548,17.0193796 7.32918388,17.0883417 C7.39681977,17.1573038 7.41711052,17.2400582 7.39005613,17.336605 L7.20743938,17.9779518 L7.84659801,18.1434607 C7.93452465,18.1641493 7.992015,18.221043 8.01906939,18.3141417 C8.04612377,18.4072404 8.02583302,18.4882708 7.95819714,18.5572329 L7.49150988,19.0227265 Z" id="" fill="#FF7700"></path>
            </g>
        </g>
    </g>
</svg>