<?xml version="1.0" encoding="UTF-8"?>
<svg width="38px" height="48px" viewBox="0 0 38 48" version="1.1" xmlns="http://www.w3.org/2000/svg" xmlns:xlink="http://www.w3.org/1999/xlink">
    <!-- Generator: Sketch 53.2 (72643) - https://sketchapp.com -->
    <title>ribbon@2x</title>
    <desc>Created with Sketch.</desc>
    <defs>
        <linearGradient x1="46.1409%" y1="100%" x2="46.1409%" y2="18.9797794%" id="linearGradient-1">
            <stop stop-color="#F68D28" offset="0%"></stop>
            <stop stop-color="#F36B21" offset="100%"></stop>
        </linearGradient>
        <polygon id="path-2" points="10 26 24.3138921 26 24.3138921 45.1612903 17.156946 40.6120249 10 45.1612903"></polygon>
        <filter x="-14.0%" y="-5.2%" width="127.9%" height="120.9%" filterUnits="objectBoundingBox" id="filter-3">
            <feOffset dx="0" dy="1" in="SourceAlpha" result="shadowOffsetOuter1"></feOffset>
            <feGaussianBlur stdDeviation="0.5" in="shadowOffsetOuter1" result="shadowBlurOuter1"></feGaussianBlur>
            <feComposite in="shadowBlurOuter1" in2="SourceAlpha" operator="out" result="shadowBlurOuter1"></feComposite>
            <feColorMatrix values="0 0 0 0 0   0 0 0 0 0   0 0 0 0 0  0 0 0 0.15 0" type="matrix" in="shadowBlurOuter1"></feColorMatrix>
        </filter>
        <linearGradient x1="53.8591%" y1="6.34627953%" x2="46.1409%" y2="93.6537205%" id="linearGradient-4">
            <stop stop-color="#F68D28" offset="0%"></stop>
            <stop stop-color="#F36B21" offset="100%"></stop>
        </linearGradient>
        <path d="M16.8753254,30.036072 C15.8359525,31.1508646 14.9072061,31.6442814 14.0890863,31.5163224 C13.2709665,31.3883634 12.5634733,30.6390286 11.9666066,29.2683179 C10.5973596,30.0063874 9.54800423,30.1904168 8.81854041,29.8204061 C8.08907658,29.4503954 7.67950433,28.5263446 7.58982366,27.0482536 C6.03908179,27.3296187 4.98283129,27.1843183 4.42107217,26.6123523 C3.85931305,26.0403863 3.79204529,25.0417547 4.21926891,23.6164576 C2.65507909,23.4106281 1.70639462,22.9517433 1.37321552,22.2398034 C1.04003641,21.5278635 1.32236266,20.5628685 2.22019427,19.3448182 C0.812060725,18.6740988 0.073746972,17.9513571 0.00525300622,17.176593 C-0.0632409596,16.4018289 0.538084862,15.5750426 1.80923047,14.6962338 C0.709746332,13.6333074 0.261811043,12.725029 0.465424603,11.9713985 C0.669038164,11.2177679 1.52420057,10.6187854 3.03091183,10.1744507 C2.35922326,8.8345019 2.25020718,7.83911278 2.70386358,7.18828336 C3.15751997,6.53745395 4.17384886,6.23118423 5.75285022,6.26947421 C5.5817451,4.79770723 5.8234618,3.82307331 6.47800033,3.34557247 C7.13253885,2.86807162 8.1998992,2.88770385 9.68008138,3.40446914 C10.0281016,1.96037277 10.5943573,1.11211077 11.3788486,0.859683118 C12.1633398,0.607255469 13.1660666,0.950662178 14.3870289,1.88990324 C15.216461,0.629967748 16.0458932,-6.52847531e-14 16.8753254,-6.57252031e-14 C17.7047575,-6.60187897e-14 18.5341897,0.629967748 19.3636219,1.88990324 C20.5845842,0.950662178 21.5873109,0.607255469 22.3718022,0.859683118 C23.1562934,1.11211077 23.7225492,1.96037277 24.0705694,3.40446914 C25.5507516,2.88770385 26.6181119,2.86807162 27.2726504,3.34557247 C27.927189,3.82307331 28.1689057,4.79770723 27.9978005,6.26947421 C29.5768019,6.23118423 30.5931308,6.53745395 31.0467872,7.18828336 C31.5004436,7.83911278 31.3914275,8.8345019 30.7197389,10.1744507 C32.2264502,10.6187854 33.0816126,11.2177679 33.2852261,11.9713985 C33.4888397,12.725029 33.0409044,13.6333074 31.9414203,14.6962338 C33.2125659,15.5750426 33.8138917,16.4018289 33.7453977,17.176593 C33.6769038,17.9513571 32.93859,18.6740988 31.5304565,19.3448182 C32.4282881,20.5628685 32.7106143,21.5278635 32.3774352,22.2398034 C32.0442561,22.9517433 31.0955717,23.4106281 29.5313818,23.6164576 C29.9586055,25.0417547 29.8913377,26.0403863 29.3295786,26.6123523 C28.7678195,27.1843183 27.711569,27.3296187 26.1608271,27.0482536 C26.0711464,28.5263446 25.6615742,29.4503954 24.9321103,29.8204061 C24.2026465,30.1904168 23.1532911,30.0063874 21.7840442,29.2683179 C21.1871775,30.6390286 20.4796842,31.3883634 19.6615644,31.5163224 C18.8434446,31.6442814 17.9146983,31.1508646 16.8753254,30.036072 Z" id="path-5"></path>
        <filter x="-9.1%" y="-6.6%" width="118.2%" height="122.7%" filterUnits="objectBoundingBox" id="filter-6">
            <feMorphology radius="0.576" operator="dilate" in="SourceAlpha" result="shadowSpreadOuter1"></feMorphology>
            <feOffset dx="0" dy="2" in="shadowSpreadOuter1" result="shadowOffsetOuter1"></feOffset>
            <feGaussianBlur stdDeviation="0.5" in="shadowOffsetOuter1" result="shadowBlurOuter1"></feGaussianBlur>
            <feComposite in="shadowBlurOuter1" in2="SourceAlpha" operator="out" result="shadowBlurOuter1"></feComposite>
            <feColorMatrix values="0 0 0 0 0   0 0 0 0 0   0 0 0 0 0  0 0 0 0.15 0" type="matrix" in="shadowBlurOuter1"></feColorMatrix>
        </filter>
        <linearGradient x1="53.8591%" y1="6.07427481%" x2="46.1409%" y2="93.9257252%" id="linearGradient-7">
            <stop stop-color="#F68D28" offset="0%"></stop>
            <stop stop-color="#F36B21" offset="100%"></stop>
        </linearGradient>
    </defs>
    <g id="AT" stroke="none" stroke-width="1" fill="none" fill-rule="evenodd">
        <g id="PDP-sold" transform="translate(-241.000000, -1463.000000)" fill-rule="nonzero">
            <g id="ribbon" transform="translate(243.000000, 1464.000000)">
                <g id="Rectangle">
                    <use fill="black" fill-opacity="1" filter="url(#filter-3)" xlink:href="#path-2"></use>
                    <path stroke="#FFFFFF" stroke-width="1.44" d="M10.72,26.72 L10.72,43.8504825 L17.156946,39.7588803 L23.5938921,43.8504825 L23.5938921,26.72 L10.72,26.72 Z" stroke-linejoin="square" fill="url(#linearGradient-1)" fill-rule="evenodd"></path>
                </g>
                <g id="Star" stroke-linecap="round" stroke-linejoin="round">
                    <use fill="black" fill-opacity="1" filter="url(#filter-6)" xlink:href="#path-5"></use>
                    <use stroke="#FFFFFF" stroke-width="1.152" fill="url(#linearGradient-4)" xlink:href="#path-5"></use>
                </g>
                <ellipse id="Oval" stroke="#F9F9F9" stroke-width="1.296" fill="url(#linearGradient-7)" cx="16.5652174" cy="15.7772657" rx="12.5652174" ry="11.7772657"></ellipse>
                <path d="M23.6718424,13.3437683 C23.7812171,13.3437683 23.8678056,13.3893412 23.9316074,13.4804867 C23.9954092,13.5716322 24.009081,13.6718925 23.9726229,13.7812672 L23.7538735,14.4375156 C23.7174154,14.5833485 23.617155,14.6562651 23.4530929,14.6562651 L22.6601261,14.6562651 C22.9335629,14.8203272 23.1523124,15.0345193 23.3163745,15.2988417 C23.4804366,15.5631641 23.5624677,15.8593873 23.5624677,16.1875115 L23.5624677,17.5000083 C23.5624677,17.9375073 23.4166348,18.3203189 23.1249687,18.6484431 L23.1249687,20.3437516 C23.1249687,20.5260429 23.0611669,20.6809902 22.9335629,20.8085942 C22.8059589,20.9361982 22.6510116,21 22.4687203,21 L21.1562234,21 C20.973932,21 20.8189848,20.9361982 20.6913808,20.8085942 C20.5637768,20.6809902 20.499975,20.5260429 20.499975,20.3437516 L20.499975,19.2500042 L13.4999917,19.2500042 L13.4999917,20.3437516 C13.4999917,20.5260429 13.4361899,20.6809902 13.3085859,20.8085942 C13.1809819,20.9361982 13.0260346,21 12.8437432,21 L11.5312463,21 C11.348955,21 11.1940077,20.9361982 11.0664037,20.8085942 C10.9387997,20.6809902 10.8749979,20.5260429 10.8749979,20.3437516 L10.8749979,18.6484431 C10.5833318,18.3203189 10.437499,17.9375073 10.437499,17.5000083 L10.437499,16.1875115 C10.437499,15.8593873 10.51953,15.5631641 10.6835921,15.2988417 C10.8476542,15.0345193 11.0664037,14.8203272 11.3398406,14.6562651 L10.5468737,14.6562651 C10.3828116,14.6562651 10.2825513,14.5833485 10.2460932,14.4375156 L10.0273437,13.7812672 C9.99088558,13.6718925 10.0045574,13.5716322 10.0683592,13.4804867 C10.132161,13.3893412 10.2187495,13.3437683 10.3281242,13.3437683 L11.8320269,13.3437683 L12.0507764,12.7695509 C12.3059839,12.0950732 12.7343685,11.5481995 13.3359295,11.1289298 C13.9374906,10.7096601 14.6028535,10.500025 15.3320185,10.500025 L18.6679481,10.500025 C19.3971132,10.500025 20.062476,10.7096601 20.6640371,11.1289298 C21.2655981,11.5481995 21.6939827,12.0950732 21.9491903,12.7695509 L22.1679397,13.3437683 L23.6718424,13.3437683 Z M13.6913974,13.3984556 L13.2812422,14.4375156 L20.7187244,14.4375156 L20.3085692,13.3984556 C20.1809652,13.0521021 19.9667731,12.7741083 19.6659926,12.5644732 C19.365212,12.3548382 19.0325304,12.2500209 18.6679481,12.2500209 L15.3320185,12.2500209 C14.9674362,12.2500209 14.6347546,12.3548382 14.333974,12.5644732 C14.0331935,12.7741083 13.8190015,13.0521021 13.6913974,13.3984556 Z M12.4062443,17.7187578 L12.515619,17.7187578 C12.8802013,17.7187578 13.1445238,17.7005286 13.3085859,17.6640705 C13.5820227,17.6093831 13.7187411,17.4817791 13.7187411,17.2812589 C13.7187411,17.0442801 13.5592364,16.7662863 13.2402266,16.4472765 C12.9212169,16.1282667 12.643223,15.968762 12.4062443,15.968762 C12.1692655,15.968762 11.9641879,16.0553505 11.7910114,16.228527 C11.6178348,16.4017035 11.5312463,16.6067812 11.5312463,16.8437599 C11.5312463,17.0807387 11.6178348,17.2858163 11.7910114,17.4589928 C11.9641879,17.6321693 12.1692655,17.7187578 12.4062443,17.7187578 Z M21.5937224,17.7187578 C21.8307011,17.7187578 22.0357787,17.6321693 22.2089553,17.4589928 C22.3821318,17.2858163 22.4687203,17.0807387 22.4687203,16.8437599 C22.4687203,16.6067812 22.3821318,16.4017035 22.2089553,16.228527 C22.0357787,16.0553505 21.8307011,15.968762 21.5937224,15.968762 C21.3567436,15.968762 21.0787498,16.1282667 20.75974,16.4472765 C20.4407302,16.7662863 20.2812255,17.0442801 20.2812255,17.2812589 C20.2812255,17.4817791 20.4179439,17.6093831 20.6913808,17.6640705 C20.8554429,17.7005286 21.1197653,17.7187578 21.4843476,17.7187578 L21.5937224,17.7187578 Z" id="c" fill="#FFFFFF"></path>
            </g>
        </g>
    </g>
</svg>